# xmcd CD database file
#
# Track frame offsets:
#	150
#	32247
#	59970
#	82000
#	113338
#	147812
#
# Disc length: 2154 seconds
#
# Revision: 0
# Processed by: cddbd v1.5.1PL2 Copyright (c) Steve Scherf et al.
# Submitted via: CDex 1.51
#
DISCID=50086806
DTITLE=Ayers Rock - Beyond
DYEAR=1976
DGENRE=Jazz/Rock
TTITLE0=Angel In Disguise
TTITLE1=Catchanemu
TTITLE2=Little Kings
TTITLE3=Moondah
TTITLE4=A Place To Go
TTITLE5=Song For Darwin
EXTD=YEAR: 1976
EXTT0=
EXTT1=
EXTT2=
EXTT3=
EXTT4=
EXTT5=
PLAYORDER=
